<?xml version="1.0" encoding="UTF-8" standalone="no"?>
<!-- Created with Inkscape (http://www.inkscape.org/) -->

<svg
   xmlns:dc="http://purl.org/dc/elements/1.1/"
   xmlns:cc="http://creativecommons.org/ns#"
   xmlns:rdf="http://www.w3.org/1999/02/22-rdf-syntax-ns#"
   xmlns:svg="http://www.w3.org/2000/svg"
   xmlns="http://www.w3.org/2000/svg"
   xmlns:sodipodi="http://sodipodi.sourceforge.net/DTD/sodipodi-0.dtd"
   xmlns:inkscape="http://www.inkscape.org/namespaces/inkscape"
   width="1000mm"
   height="1000mm"
   viewBox="0 0 1000 1000"
   version="1.1"
   id="svg8"
   sodipodi:docname="maze.svg"
   inkscape:version="0.92.3 (2405546, 2018-03-11)">
  <defs
     id="defs2" />
  <sodipodi:namedview
     id="base"
     pagecolor="#ffffff"
     bordercolor="#666666"
     borderopacity="1.0"
     inkscape:pageopacity="0.0"
     inkscape:pageshadow="2"
     inkscape:zoom="0.22627417"
     inkscape:cx="1680.2785"
     inkscape:cy="1959.6004"
     inkscape:document-units="mm"
     inkscape:current-layer="layer1"
     showgrid="false"
     inkscape:window-width="1920"
     inkscape:window-height="1017"
     inkscape:window-x="-8"
     inkscape:window-y="-8"
     inkscape:window-maximized="1" />
  <metadata
     id="metadata5">
    <rdf:RDF>
      <cc:Work
         rdf:about="">
        <dc:format>image/svg+xml</dc:format>
        <dc:type
           rdf:resource="http://purl.org/dc/dcmitype/StillImage" />
        <dc:title />
      </cc:Work>
    </rdf:RDF>
  </metadata>
  <g
     inkscape:label="Layer 1"
     inkscape:groupmode="layer"
     id="layer1"
     transform="translate(0,703)">
    <ellipse
       id="path3723"
       cx="60.854164"
       cy="-628.38019"
       rx="13.229166"
       ry="11.244792"
       style="stroke-width:0.26458332" />
    <ellipse
       id="path3725"
       cx="960.4375"
       cy="259.29688"
       rx="26.458332"
       ry="23.151041"
       style="stroke-width:0.26458332" />
    <path
       id="path15"
       d="m 393.72397,-716.74511 c 0.0954,4.6251 -0.38796,9.21838 -0.79849,13.81707 -0.11207,3.54703 -0.74363,7.02889 -1.25277,10.53037 -0.39984,2.84192 -0.40963,5.7088 -0.87911,8.54056 -0.71572,3.40568 -0.85992,6.88404 -0.98562,10.35026 -0.0855,3.68528 -0.0889,7.37207 -0.0804,11.05817 0.01,3.39832 0.004,6.79667 0.006,10.195 0.006,2.59362 0.0146,5.18723 0.0204,7.78084 0,0 -17.50869,8.9213 -17.50869,8.9213 v 0 c 0.005,-2.5996 0.0135,-5.19919 0.0167,-7.79879 0,-3.39816 -0.0146,-6.79633 -0.0101,-10.19448 0.009,-3.71048 0.003,-7.42123 0.0951,-11.13091 0.0823,-3.52898 0.12459,-7.09052 0.77221,-10.57047 0.55184,-2.81337 0.65709,-5.63414 0.94057,-8.48655 0.47913,-3.49579 1.25669,-6.94053 1.35797,-10.47882 0.43884,-4.52616 1.0768,-9.05388 0.79526,-13.61161 0,0 17.51028,-8.92194 17.51028,-8.92194 z"
       inkscape:connector-curvature="0"
       style="stroke-width:0.26458332" />
    <path
       id="path26"
       d="m 195.54159,-719.22787 c -0.11847,5.03487 -0.069,10.07166 -0.0342,15.10723 0.0209,3.24076 0.0509,6.48155 0.0371,9.72238 -0.005,2.98056 0.004,5.96113 0.008,8.94168 0.004,2.68883 0.004,5.37767 0.005,8.0665 2.7e-4,2.64333 2.2e-4,5.28665 1.8e-4,7.92997 0.007,2.77282 -0.007,5.54557 -0.0131,8.31835 -0.001,2.93114 0.006,5.86226 0.009,8.79339 0.003,2.67686 0.003,5.35371 0.004,8.03057 2e-4,2.64334 1.2e-4,5.28668 9e-5,7.93001 -3e-5,2.64519 -4e-5,5.29039 -5e-5,7.93558 0,1.76251 0,0.88326 0,2.64579 0,0 -17.52243,8.92812 -17.52243,8.92812 v 0 c 0,-1.76386 0,-0.88193 0,-2.64579 -1e-5,-2.64517 -2e-5,-5.29034 -6e-5,-7.93551 -3e-5,-2.64337 -1.1e-4,-5.28674 9e-5,-7.93011 2.7e-4,-2.67814 8e-4,-5.35627 0.004,-8.0344 0.003,-2.93428 0.0103,-5.86856 0.009,-8.80285 -0.006,-2.76832 -0.0206,-5.5366 -0.0131,-8.30496 -3e-5,-2.64338 -1.2e-4,-5.28676 1.8e-4,-7.93015 5.3e-4,-2.69045 0.001,-5.3809 0.005,-8.07135 0.004,-2.98321 0.0123,-5.96642 0.008,-8.94964 -0.0139,-3.25344 0.0164,-6.50684 0.0371,-9.7602 0.0344,-5.02392 0.085,-10.04912 -0.0343,-15.07233 0,0 17.49134,-8.91228 17.49134,-8.91228 z"
       inkscape:connector-curvature="0"
       style="stroke-width:0.26458332" />
    <path
       id="path31"
       d="m 193.93504,-636.88089 c -0.19247,7.67505 -0.14136,15.35378 -0.11036,23.03045 -0.0831,5.10455 0.003,10.1772 0.65957,15.24042 0.45729,3.73999 1.1946,7.43226 1.64251,11.17541 0.37111,3.68078 0.43364,7.38109 0.45773,11.07728 0.004,3.92464 0.0117,7.84923 -2.6e-4,11.77385 -0.0256,4.74125 -0.028,9.48257 -0.0512,14.22381 -0.0247,5.20091 0.0133,10.40177 0.0223,15.60265 0.0204,3.82995 0.0237,7.65993 0.0389,11.4899 0.0124,2.86861 0.0174,5.73724 0.0199,8.60587 0.002,2.64293 0.002,5.28586 0.002,7.9288 0.007,2.84416 -0.0131,5.68822 -0.0135,8.53237 0.002,1.95402 0.005,3.90803 0.008,5.86205 0,0 -17.51154,8.92257 -17.51154,8.92257 v 0 c 0.003,-1.95668 0.006,-3.91335 0.008,-5.87003 -5.3e-4,-2.83956 -0.0204,-5.67902 -0.0136,-8.51858 -5e-5,-2.64344 -2.6e-4,-5.28687 0.002,-7.9303 0.003,-2.8754 0.008,-5.7508 0.0199,-8.62618 0.0152,-3.84317 0.0185,-7.68635 0.0388,-11.5295 0.009,-5.20869 0.0468,-10.41736 0.0231,-15.62608 -0.022,-4.72677 -0.0228,-9.45361 -0.0384,-14.18041 -0.003,-3.91791 0.0249,-7.83585 -0.001,-11.7537 -0.0317,-3.63312 -0.0503,-7.2718 -0.37052,-10.89376 -0.38817,-3.74633 -1.13338,-7.42477 -1.6351,-11.15144 -0.61897,-5.18364 -0.7199,-10.35362 -0.5386,-15.57451 0.0307,-7.63916 0.0836,-15.28047 -0.11036,-22.91798 0,0 17.45341,-8.89296 17.45341,-8.89296 z"
       inkscape:connector-curvature="0"
       style="stroke-width:0.26458332" />
    <path
       id="path33"
       d="m 15.858238,-361.46107 c 6.682981,-1.2056 13.278051,-2.74469 20.02196,-3.62752 7.491566,-0.86233 15.035821,-0.99997 22.567747,-1.10437 5.925886,0.31483 11.836799,0.82415 17.766265,1.08148 5.610582,0.20881 11.225792,0.21955 16.839453,0.23032 4.897819,0.008 9.795597,-0.0143 14.693377,-0.0315 4.55153,-0.003 9.10306,0.008 13.65459,0.0124 4.43471,0.006 8.8693,-0.0222 13.304,-0.0169 4.77213,0.0103 9.54426,0.0164 14.31639,0.0198 4.9047,-0.0116 9.80943,-0.005 14.71414,-0.003 5.21413,0.003 10.42827,0.004 15.64241,0.005 4.8047,-0.005 9.60942,-0.005 14.4141,-0.0209 3.59434,-1.1e-4 7.18866,-0.0151 10.78299,-0.0233 2.74186,-0.006 5.48372,-0.007 8.22559,-0.008 0.43976,-5e-5 0.87953,-10e-5 1.31929,-1.6e-4 0,0 -15.91044,11.55962 -15.91044,11.55962 v 0 c -0.43963,-5e-5 -0.87925,-10e-5 -1.31888,-1.6e-4 -2.73479,0 -5.46959,-0.003 -8.20437,-0.008 -3.57291,-0.008 -7.14581,-0.0233 -10.71873,-0.0233 -4.78544,-0.0164 -9.57092,-0.0159 -14.35638,-0.0209 -5.21827,0 -10.43654,0 -15.65482,0.004 -4.90327,0.003 -9.80655,0.0103 -14.70982,-0.003 -4.79035,0.003 -9.58071,0.01 -14.37105,0.0198 -4.41934,0.005 -8.83856,-0.0233 -13.2579,-0.0164 -4.56596,0.006 -9.131915,0.0172 -13.697882,0.0206 -4.873228,-0.0103 -9.746448,-0.0212 -14.619679,-0.0315 -5.633474,-0.0254 -11.26953,-0.046 -16.898503,-0.29459 -5.875047,-0.30607 -11.733353,-0.88654 -17.615125,-1.04333 -7.471915,0.10282 -14.9592,0.28853 -22.377615,1.26683 -6.790772,1.02174 -13.4721687,2.53844 -20.19003191,3.94695 0,0 15.63892391,-11.89334 15.63892391,-11.89334 z"
       inkscape:connector-curvature="0"
       style="stroke-width:0.26458332" />
    <path
       id="path35"
       d="m 391.07805,-649.27636 c -0.11483,4.86555 -0.0693,9.73363 -0.0491,14.60013 0.0456,4.26984 0.0156,8.53965 -0.0309,12.8093 0.0452,5.64594 -0.14967,11.30011 0.13539,16.9406 0.33046,5.00313 1.37618,9.91881 1.97871,14.89136 0.28297,3.90127 0.61553,7.77951 1.13292,11.65757 0.47837,3.67466 0.63489,7.3759 0.73739,11.07639 0.0646,3.30267 0.0608,6.60645 0.0674,9.90968 0.004,2.77575 0.004,5.55152 0.004,8.32727 -2.6e-4,2.6437 0,5.28739 0,7.93109 0.005,2.90001 -0.006,5.79998 -0.0228,8.69995 -0.006,3.20853 0.008,6.41706 0.0148,9.62558 0.006,2.71449 0.007,5.42899 0.008,8.14348 0,2.64138 0,5.28277 0,7.92415 -3e-5,0.4405 -3e-5,0.88099 -3e-5,1.32148 0,0 -17.52261,8.92821 -17.52261,8.92821 v 0 c 0,-0.44048 0,-0.88097 -3e-5,-1.32145 -5e-5,-2.64147 -2.1e-4,-5.28294 0,-7.92442 0,-2.71714 0.003,-5.43429 0.008,-8.15143 0.007,-3.21355 0.0209,-6.42712 0.0148,-9.64068 -0.0167,-2.89219 -0.0275,-5.78439 -0.023,-8.67663 -3e-5,-2.64427 -1.6e-4,-5.28855 0.003,-7.93282 0.003,-2.77995 0.008,-5.55991 0.0196,-8.33984 0.0122,-3.29403 0.0241,-6.58814 -0.0212,-9.88202 -0.0623,-3.63818 -0.18275,-7.28019 -0.62688,-10.8953 -0.50226,-3.89774 -0.94932,-7.77734 -1.10421,-11.70824 -0.54393,-5.02424 -1.5426,-9.9841 -1.97033,-15.01853 -0.37562,-5.67281 -0.0721,-11.3631 -0.1811,-17.0451 -0.047,-4.25914 -0.0763,-8.51843 -0.0309,-12.77777 0.0201,-4.84981 0.0663,-9.70124 -0.0491,-14.55007 0,0 17.51029,-8.92194 17.51029,-8.92194 z"
       inkscape:connector-curvature="0"
       style="stroke-width:0.26458332" />
    <path
       id="path39"
       d="m 389.75514,-337.06803 c -0.35505,4.39685 -0.80505,8.78399 -1.0831,13.18708 -0.18182,3.12237 -0.22913,6.25051 -0.2522,9.37744 0,3.05355 -0.003,6.10708 -0.003,9.16064 0.004,2.95637 0.0127,5.91272 0.0169,8.8691 0.003,2.67406 0.004,5.34813 0.004,8.02222 0.008,2.77058 -0.007,5.54109 -0.013,8.31164 0,2.9305 0.006,5.861 0.009,8.79153 0,0.45468 0,0.9094 0,1.36411 0,0 -17.51743,8.92556 -17.51743,8.92556 v 0 c 0,-0.45514 0,-0.91027 0,-1.36541 0.003,-2.93365 0.0103,-5.86729 0.009,-8.80094 -0.007,-2.76611 -0.0206,-5.5322 -0.013,-8.29837 0,-2.67525 0,-5.35053 0.004,-8.02579 0.003,-2.96024 0.0101,-5.92047 0.009,-8.88071 -0.006,-3.05657 -0.0198,-6.11309 -0.005,-9.16967 0.008,-3.16904 0.0238,-6.33954 0.23831,-9.50306 0.29493,-4.35375 0.75948,-8.69212 1.08323,-13.04343 0,0 17.51028,-8.92194 17.51028,-8.92194 z"
       inkscape:connector-curvature="0"
       style="stroke-width:0.26458332" />
    <path
       id="path41"
       d="m 393.50074,-354.07243 c -0.90686,4.44625 -1.87373,8.86524 -3.2013,13.20689 -1.04283,3.21723 -1.51403,6.55982 -1.75668,9.92013 0,0 -17.56026,8.80483 -17.56026,8.80483 v 0 c 0.20167,-3.50327 0.61804,-6.99479 1.61213,-10.37333 1.3792,-4.26559 2.59609,-8.56859 3.20913,-13.02361 0,0 17.69698,-8.53491 17.69698,-8.53491 z"
       inkscape:connector-curvature="0"
       style="stroke-width:0.26458332" />
    <path
       id="path43"
       d="m 385.78639,-266.95344 c -0.0984,4.37581 -0.0531,8.75337 -0.0286,13.12981 0.0251,3.25226 0.0356,6.50431 0,9.75649 -0.0411,4.75636 -0.0461,9.5129 -0.0225,14.26937 0.0285,3.54865 0.0461,7.09711 0.0282,10.6458 -0.0259,3.65133 -0.003,7.30277 0.0122,10.9541 0.0109,2.79905 0.0138,5.5981 0.0156,8.39718 0,2.63981 0,5.27963 0,7.91943 -0.0404,0.52568 -0.0808,1.05135 -0.12123,1.57703 0,0 -17.59691,8.73098 -17.59691,8.73098 v 0 c 0.0651,-0.4599 0.13017,-0.91977 0.19526,-1.37964 -8e-5,-2.64009 0,-5.28019 0,-7.92028 0.003,-2.80434 0.005,-5.60871 0.0156,-8.41306 0.0138,-3.65548 0.038,-7.31107 0.0122,-10.96656 -0.018,-3.55827 0,-7.11631 0.0282,-10.6745 0.0235,-4.74885 0.0191,-9.49778 -0.0225,-14.24652 -0.0355,-3.25236 -0.0243,-6.50457 0,-9.75701 0.0243,-4.36671 0.0703,-8.73461 -0.0286,-13.10069 0,0 17.51029,-8.92193 17.51029,-8.92193 z"
       inkscape:connector-curvature="0"
       style="stroke-width:0.26458332" />
    <path
       id="path45"
       d="m 384.46347,-180.96386 c -0.0984,4.37581 -0.0531,8.75337 -0.0286,13.12981 0.028,3.14344 0.0227,6.28685 0.0196,9.43034 0.003,4.37486 -0.13731,8.74958 0.0656,13.12063 0.46778,5.5072 0.8274,11.01947 1.02542,16.54286 0.15327,4.75351 0.19566,9.50865 0.19732,14.26419 -0.008,5.00468 -0.0182,10.00935 -0.0238,15.014021 0.009,3.945229 0.0408,7.890352 0.0592,11.835527 0.0119,2.744602 0.0138,5.489231 0.0146,8.233833 -0.003,2.686156 0.008,5.372312 -0.01,8.058415 -0.009,2.981325 0,5.96265 0.004,8.943975 -0.2945,3.410188 -0.78787,6.79704 -1.06129,10.210879 -0.21535,3.019451 -0.25654,6.047422 -0.27409,9.073303 -0.006,2.869909 0.005,5.739792 0.0111,8.6097 0.004,2.219511 0.006,4.439021 0.006,6.658557 0,0 -17.52222,8.928577 -17.52222,8.928577 v 0 c -2.4e-4,-2.219855 0,-4.439682 0,-6.65951 0,-2.877635 0,-5.755269 0.008,-8.632904 0.013,-3.068426 0.003,-6.13963 0.21643,-9.202552 0.25035,-3.36685 0.63498,-6.720179 1.10503,-10.063454 0.004,-2.982621 0.0127,-5.965243 0.004,-8.947864 -0.0175,-2.682849 -0.007,-5.365803 -0.01,-8.048704 0,-2.749683 0.003,-5.499391 0.0148,-8.249074 0.019,-3.966553 0.0526,-7.933002 0.0648,-11.899582 0,-4.997185 -0.003,-9.994373 -0.0119,-14.991553 -0.0119,-4.74493 0,-9.49079 -0.11789,-14.23461 -0.17148,-5.50847 -0.4802,-11.00976 -1.00627,-16.49688 -0.31184,-4.37899 -0.20576,-8.76684 -0.25093,-13.15514 -0.003,-3.15007 -0.008,-6.30012 0.0196,-9.45017 0.0243,-4.36671 0.0703,-8.73461 -0.0286,-13.10069 0,0 17.51028,-8.92193 17.51028,-8.92193 z"
       inkscape:connector-curvature="0"
       style="stroke-width:0.26458332" />
    <path
       id="path47"
       d="m 393.40723,-287.02537 c -1.60485,8.52146 -2.23472,17.1809 -3.71141,25.71962 -1.02256,7.17502 -3.13637,14.11001 -5.0759,21.07348 -1.44984,5.452 -2.67229,10.96727 -3.45853,16.55495 -0.58986,4.84714 -0.6927,9.73421 -0.7321,14.61127 0.0262,3.72176 0.12443,7.42214 -0.29697,11.12393 -0.26956,3.81997 -1.28995,7.49356 -2.32865,11.15647 -0.93768,3.33209 -1.11199,6.79543 -1.25005,10.2335 -0.0909,3.26946 -0.0489,6.54037 -0.0553,9.81054 -0.006,3.36161 0.004,6.7232 0.0167,10.08481 0.0167,3.06763 0.009,6.13526 -0.007,9.20287 -0.003,3.47551 -0.006,6.95097 0.004,10.42649 0.01,2.87959 0.0151,5.75918 0.018,8.63877 -0.13758,2.61448 0.20024,5.18835 0.83354,7.71967 0.49858,1.75035 0.25498,0.86839 0.73033,2.64607 0,0 -17.28232,9.37255 -17.28232,9.37255 v 0 c -0.45098,-1.74892 -0.21013,-0.87056 -0.72392,-2.63469 -0.76232,-2.65507 -1.20484,-5.40917 -1.0767,-8.17722 0.003,-2.88567 0.008,-5.77138 0.018,-8.65703 0.0101,-3.47692 0.007,-6.95381 0.004,-10.43072 -0.0159,-3.06427 -0.023,-6.12855 -0.0101,-9.19284 0.007,-3.36138 0.0101,-6.72272 -0.0122,-10.08404 -0.0201,-3.29422 -0.008,-6.58881 0.0505,-9.88261 0.0842,-3.56704 0.2332,-7.15624 1.02253,-10.64932 0.99521,-3.59214 2.29931,-7.12722 2.48579,-10.89086 0.43841,-3.65003 0.50718,-7.28639 0.44765,-10.96584 0.0555,-4.95528 0.1062,-9.91815 0.66871,-14.84847 0.72207,-5.69018 1.95058,-11.29205 3.4033,-16.83872 2.00015,-6.91224 4.19984,-13.79741 5.21944,-20.93963 1.65404,-8.44576 2.41149,-17.03096 3.58809,-25.55163 0,0 17.50997,-8.63137 17.50997,-8.63137 z"
       inkscape:connector-curvature="0"
       style="stroke-width:0.26458332" />
    <path
       id="path49"
       d="m 367.53508,-169.99863 c -5.74603,-1.305 -11.53398,-2.39794 -17.34068,-3.39995 -7.90938,-2.19863 -16.05484,-3.09866 -24.21636,-3.67445 -6.96561,-0.40722 -13.94479,-0.46728 -20.92023,-0.45672 -4.04326,0.0748 -8.15703,0.4659 -12.11752,1.32064 -3.58085,0.60031 -6.51026,2.59334 -9.715,4.09643 -2.51674,1.04585 -5.2193,0.93081 -7.70207,2.04645 -1.99846,0.45257 -3.53113,1.8478 -5.3439,2.67684 -0.98285,0.44948 -2.01485,0.785 -3.00122,1.22666 -3.26651,1.21055 -6.31836,2.83197 -9.6768,3.79241 -2.67949,0.7779 -5.50805,0.30038 -7.99729,1.63176 -2.5577,1.36383 -5.26592,2.2134 -8.10768,2.72603 -2.75404,0.41159 -5.54421,0.4276 -8.32241,0.44413 -2.70405,2.1e-4 -5.40813,-0.008 -8.11212,-0.0251 -3.53278,0.33943 -6.83737,-0.83447 -10.22881,-1.59996 -3.08508,-0.69358 -6.23717,-0.92292 -9.38844,-1.02863 -1.79472,-0.0446 -3.59011,-0.0411 -5.38523,-0.04 0,0 15.91263,-11.55414 15.91263,-11.55414 v 0 c 1.80963,0.0116 3.61996,0.0241 5.42764,0.11869 3.2113,0.20008 6.40864,0.57997 9.53927,1.34964 3.31527,0.7761 6.58178,1.50916 10.01872,1.21148 2.70304,-0.004 5.40621,0.022 8.10915,-0.0119 2.70401,-0.0573 5.42519,-0.14573 8.07286,-0.75343 2.7643,-0.71808 5.33623,-1.8729 7.96689,-2.96534 2.64692,-0.62071 5.43023,-0.55465 8.00669,-1.52784 3.24363,-1.16401 6.33865,-2.69237 9.54476,-3.95438 2.83723,-1.24659 5.48328,-2.90489 8.46974,-3.80569 2.53857,-0.67717 5.21647,-0.88752 7.54499,-2.22287 3.18206,-1.65695 6.4413,-3.04638 10.01434,-3.63805 4.0448,-0.6137 8.13591,-1.08175 12.23352,-0.95541 6.9392,0.0738 13.87935,0.21619 20.804,0.70641 8.2459,0.64186 16.42705,1.73099 24.46586,3.73373 5.87576,1.04825 11.73337,2.18032 17.58865,3.33412 0,0 -16.14395,11.19825 -16.14395,11.19825 z"
       inkscape:connector-curvature="0"
       style="stroke-width:0.26458332" />
    <path
       id="path51"
       d="m 363.53916,-17.376433 c -6.58561,-0.105489 -13.17244,-0.08435 -19.75863,-0.07321 -5.92492,0.01349 -11.84987,0.02302 -17.77481,0.02781 -5.1919,-0.0026 -10.38376,0.0071 -15.57563,0.01217 -4.99345,0 -9.98691,-0.0042 -14.98036,-0.0064 -5.25799,-0.0026 -10.516,-0.0026 -15.77401,-0.0026 -4.78192,0 -9.56379,0.01773 -14.34571,0.01508 -4.8175,-0.01058 -9.63498,-0.0066 -14.45247,-0.0042 -4.05986,0.0172 -8.11974,0.01296 -12.17962,0.01799 -3.69378,0.0071 -7.38755,-0.0026 -11.08133,0.005 -3.90023,-0.0082 -7.80045,-0.01217 -11.70068,-0.0037 -3.09762,0.0093 -6.19524,0.01614 -9.29287,0.01984 -2.6616,0.0026 -5.3232,0.0026 -7.9848,0.0026 -2.63977,-2.7e-5 -5.27955,-1.06e-4 -7.91932,-1.59e-4 -1.32236,-2.6e-5 -2.64471,-2.6e-5 -3.96707,-2.6e-5 0,0 15.91006,-11.559355 15.91006,-11.559355 v 0 c 1.32239,0 2.64478,0 3.96718,-2.7e-5 2.6399,-5.2e-5 5.27981,-1.32e-4 7.91971,-1.32e-4 2.65921,5.3e-5 5.31843,8e-5 7.97764,0.0026 3.07947,0.0037 6.15893,0.01058 9.23839,0.01984 3.90361,0.0085 7.80721,0.0045 11.71081,-0.0037 3.6892,0.0066 7.37839,-0.0026 11.06758,0.005 4.04347,0.005 8.08695,0 12.1304,0.01773 4.82139,0.0026 9.64279,0.0064 14.46421,-0.0042 4.76803,-0.0026 9.53604,0.01482 14.30409,0.01508 5.26034,-2.12e-4 10.52068,0 15.78102,-0.0026 4.99925,-0.0026 9.99853,-0.0066 14.9978,-0.0063 5.1806,0.0053 10.36122,0.01376 15.54184,0.01217 5.89941,0.0048 11.79883,0.01429 17.69824,0.02781 6.65337,0.01138 13.30733,0.03082 19.96014,-0.07321 0,0 -15.8818,11.538823 -15.8818,11.538823 z"
       inkscape:connector-curvature="0"
       style="stroke-width:0.26458332" />
    <path
       id="path53"
       d="m 209.83848,141.8278 c -0.10859,5.34866 -0.0878,10.69912 -0.086,16.04865 0.0301,4.54602 0.0363,9.09211 0.0508,13.63818 0.0159,3.72846 0.003,7.45691 0.0133,11.1854 -0.0198,3.69554 -0.007,7.39105 0.008,11.08657 0.0242,3.5094 -0.0111,7.01878 -0.0286,10.52811 -0.0367,5.39695 -0.64355,10.77201 -0.96976,16.15726 -0.27203,4.98906 -0.33429,9.98553 -0.3717,14.98076 0.002,4.07802 0.0152,8.15607 0.0343,12.23407 0.0166,2.96532 0.0257,5.93069 0.0303,8.89608 0.0109,2.77744 -0.003,5.5548 -0.01,8.33218 -0.001,2.9264 0.006,5.85277 0.009,8.77917 0.003,2.67647 0.003,5.35297 0.004,8.02944 2e-4,2.6434 1.2e-4,5.28677 1e-4,7.93017 -4e-5,2.6452 -5e-5,5.2904 -6e-5,7.9356 0,2.64583 0,5.29166 0,7.9375 -0.03,0.42635 -0.0599,0.85267 -0.0899,1.27902 0,0 -17.65918,8.69945 -17.65918,8.69945 v 0 c 0.0755,-0.35013 0.15108,-0.70022 0.22662,-1.05035 0,-2.64583 0,-5.29166 0,-7.9375 -1e-5,-2.64517 -2e-5,-5.29037 -5e-5,-7.93554 -4e-5,-2.64342 -1.1e-4,-5.28685 9e-5,-7.93025 2.6e-4,-2.67774 7.9e-4,-5.35548 0.004,-8.03325 0.003,-2.92944 0.0102,-5.85891 0.009,-8.78838 -0.007,-2.77367 -0.0208,-5.5473 -0.0109,-8.32101 0.003,-2.97344 0.009,-5.94691 0.02,-8.92035 0.0119,-4.09741 0.013,-8.19483 0.0501,-12.29217 0.0227,-5.03004 0.0508,-10.06324 0.35202,-15.08604 0.30503,-5.34 0.92873,-10.66813 0.94762,-16.01753 -0.0176,-3.49961 -0.0529,-6.99926 -0.0286,-10.49893 0.0143,-3.69816 0.0275,-7.39629 0.008,-11.09448 0.0105,-3.73295 -0.003,-7.46593 0.0133,-11.19889 0.0146,-4.56334 0.0208,-9.12672 0.0508,-13.69001 0.002,-5.3203 0.0232,-10.64157 -0.086,-15.96099 0,0 17.51029,-8.92194 17.51029,-8.92194 z"
       inkscape:connector-curvature="0"
       style="stroke-width:0.26458332" />
    <path
       id="path55"
       d="m 380.47578,-31.148127 c -0.14489,7.192671 -0.69848,14.369044 -1.40992,21.5252822 -0.80925,7.3609728 -1.08862,14.7620565 -1.24113,22.1609968 -0.0698,5.254969 -0.0648,10.510494 -0.0382,15.765727 0.018,3.64408 0.0338,7.288186 0.0506,10.932292 0.0127,2.783523 0.0156,5.567098 0.0175,8.350674 -0.0175,3.47083 -0.0384,6.941555 -0.032,10.412438 -0.0109,3.478768 0.009,6.957536 0.0204,10.436278 -0.0135,3.113008 -0.003,6.226043 0.004,9.339051 0.003,2.774394 0.0148,5.548789 -0.003,8.32313 -0.008,2.98114 2.1e-4,5.962306 0.004,8.943472 0.004,2.696131 0.004,5.392316 0.005,8.088476 0,2.64376 0,5.28753 2.7e-4,7.9313 -3e-5,2.64494 -6e-5,5.28984 -6e-5,7.93478 -2e-5,2.64581 -2e-5,5.29161 -2e-5,7.93742 0,2.64583 0,5.29169 0,7.93753 0,2.64583 0,5.29166 0,7.9375 0,2.64583 0,5.29166 0,7.9375 0,1.76389 0,3.52779 0,5.29166 0,0 -17.5224,8.92813 -17.5224,8.92813 v 0 c 0,-1.7639 0,-3.52777 0,-5.29167 0,-2.64583 0,-5.29166 0,-7.9375 0,-2.64583 0,-5.29166 0,-7.9375 0,-2.64586 0,-5.29169 0,-7.93755 0,-2.64578 0,-5.29159 -3e-5,-7.9374 0,-2.6449 -3e-5,-5.28978 -5e-5,-7.93469 -3e-5,-2.64388 -1.1e-4,-5.28772 2.6e-4,-7.9316 0,-2.6979 0.003,-5.39581 0.005,-8.09371 0.004,-2.98267 0.0127,-5.965349 0.005,-8.947997 -0.0169,-2.773627 -0.004,-5.547333 -0.003,-8.321013 0.006,-3.114463 0.0177,-6.228953 0.004,-9.343416 0.0111,-3.4857 0.0312,-6.971401 0.0204,-10.457101 0.006,-3.459982 -0.0143,-6.919806 -0.0319,-10.379736 0.003,-2.788126 0.004,-5.576226 0.0127,-8.364352 0.0109,-3.657283 0.0161,-7.314592 0.0254,-10.971874 0.022,-5.294154 0.0298,-10.589048 0.16748,-15.881826 0.18399,-7.447148 0.43114,-14.9010952 1.20391,-22.3146407 0.74512,-7.0463039 1.41541,-14.1355763 1.26084,-21.2274413 0,0 17.4724,-8.90262 17.4724,-8.90262 z"
       inkscape:connector-curvature="0"
       style="stroke-width:0.26458332" />
    <path
       id="path57"
       d="m 390.49616,-368.41805 c 5.09084,1.16525 10.09676,2.74804 15.02941,4.46317 5.26653,1.80838 10.58352,3.3867 15.93035,4.92795 4.63923,1.78099 9.50532,2.62871 14.42839,3.09597 4.60177,0.33826 9.21904,0.31326 13.83007,0.31202 3.87371,-0.0151 7.74739,-0.0292 11.6211,-0.0403 4.41818,0.003 8.83635,0.0135 13.25452,0.019 4.58269,0.01 9.16532,-0.0153 13.74799,-0.0172 4.18266,0.004 8.32336,-0.73813 12.4297,-1.46378 4.09276,-0.52048 8.15409,-1.17734 12.22899,-1.82393 3.59579,-0.22627 7.11454,-0.85561 10.67091,-1.38308 3.29549,-0.48355 6.62987,-0.55901 9.95426,-0.6259 2.84982,-0.0424 5.70005,-0.0345 8.55006,-0.0312 2.69997,0.006 5.39993,0 8.09987,0.0132 2.98273,0.007 5.96549,0 8.94821,-0.003 3.62987,-0.21831 7.25297,-1.21486 10.80355,-2.05176 4.33663,-1.42315 8.79022,-2.35969 13.31391,-2.91923 3.03202,-0.33205 6.08441,-0.34954 9.13064,-0.3547 2.64522,0.006 5.29042,0.018 7.93565,0.0241 2.19882,0.005 4.39761,0.006 6.5964,0.006 0,0 -15.91069,11.55869 -15.91069,11.55869 v 0 c -2.19985,0 -4.39968,-0.003 -6.59953,-0.009 -2.64038,-0.008 -5.28082,-0.0243 -7.92122,-0.0135 -2.97961,0.0308 -5.96493,0.10483 -8.92101,0.51617 -4.46678,0.6685 -8.8201,1.79213 -13.1635,3.01954 -3.67858,0.80113 -7.3674,1.90502 -11.16441,1.77596 -2.98056,-0.003 -5.96112,-0.008 -8.94168,-0.004 -2.70496,0.01 -5.40996,0 -8.11495,-0.004 -2.83125,-0.003 -5.66293,-0.0114 -8.49363,0.0538 -3.27551,0.0984 -6.55217,0.27252 -9.78966,0.81367 -3.54005,0.55875 -7.09136,0.92906 -10.64535,1.38102 -4.05427,0.65593 -8.12607,1.16041 -12.17922,1.8193 -4.17529,0.71522 -8.40301,1.28831 -12.64878,1.20671 -4.56681,-0.003 -9.13365,-0.0276 -13.70049,-0.0169 -4.44075,0.006 -8.88149,0.0177 -13.3222,0.0348 -3.86445,0.005 -7.72895,0.0204 -11.59341,0.01 -4.64521,-0.0225 -9.30042,-0.0558 -13.92822,-0.49774 -4.98078,-0.61372 -9.86152,-1.67973 -14.59111,-3.38942 -5.36519,-1.53715 -10.66061,-3.26014 -15.95601,-5.02385 -4.94173,-1.64431 -9.93497,-3.23154 -15.06286,-4.18113 0,0 16.14395,-11.19825 16.14395,-11.19825 z"
       inkscape:connector-curvature="0"
       style="stroke-width:0.26458332" />
    <path
       id="path59"
       d="m 839.23443,298.71384 c 0.14034,-5.11334 0.0673,-10.22909 0.0552,-15.34348 0.19119,-3.75142 -0.33168,-7.45427 -0.7829,-11.16484 -0.2204,-3.55385 -0.6218,-7.0758 -1.08974,-10.60373 -0.49824,-3.50885 -0.66249,-7.04702 -0.7656,-10.58524 -0.0695,-2.99587 -0.0839,-5.99284 -0.0665,-8.98937 0.0198,-4.41725 0.0635,-8.83436 0.0935,-13.25155 0.0381,-6.60943 0.0337,-13.21861 0.0143,-19.82806 -0.0301,-5.50458 -0.0161,-11.00924 -0.037,-16.51381 0.0499,-3.91488 -0.18309,-7.8404 0.0517,-11.75036 0.41037,-2.77942 2.05105,-5.11633 2.96283,-7.73753 0.73343,-2.43991 0.81675,-4.99671 0.88361,-7.52411 0.0401,-2.63719 0.0201,-5.27482 0.0114,-7.91216 -0.009,-2.64739 -0.0116,-5.29479 -0.0132,-7.94218 -1.6e-4,-0.44109 0,-0.88215 0,-1.32321 0,0 17.52214,-8.92865 17.52214,-8.92865 v 0 c 1.1e-4,0.44092 2.1e-4,0.88188 0,1.32283 0,2.64586 0.003,5.2917 0.0106,7.93753 0.008,2.65075 0.0262,5.30159 0.0103,7.95234 -0.0368,2.6779 -0.0776,5.37684 -0.64587,8.00611 -0.69448,2.65954 -1.99099,4.95887 -3.15254,7.41534 -0.58674,3.8326 -0.0383,7.76777 -0.26479,11.63048 -0.0206,5.51714 -0.007,11.03434 -0.0369,16.55146 -0.0193,6.60519 -0.0241,13.21009 0.0119,19.81523 0.0278,4.38861 0.0692,8.77723 0.0773,13.16593 0.0122,2.98521 -0.0164,5.97056 0.0251,8.95561 0.0656,3.47684 0.19545,6.95638 0.64397,10.40853 0.4745,3.53663 0.98875,7.04966 1.12543,10.62135 0.42447,3.79524 1.07572,7.57113 0.81084,11.4064 -0.0122,5.09564 -0.0858,10.19265 0.0552,15.2872 0,0 -17.51028,8.92194 -17.51028,8.92194 z"
       inkscape:connector-curvature="0"
       style="stroke-width:0.26458332" />
    <path
       id="path67"
       d="m 517.58,-195.36476 c 6.33182,0.65397 12.69831,0.86566 19.05844,1.0224 5.44499,0.11335 10.89141,0.1057 16.33728,0.10861 4.621,0.005 9.24195,-0.0122 13.8629,-0.0257 3.83439,-0.003 7.66879,-0.013 11.50318,-0.007 3.87652,0.006 7.75306,0.004 11.62958,-0.004 2.9836,-0.0647 5.89536,-0.14473 8.81295,0.50183 2.30431,0.5402 4.66952,0.66773 7.02574,0.75404 2.59766,0.0683 5.19658,0.0595 7.79489,0.0577 2.64756,-0.004 5.29511,-0.007 7.94269,-0.008 2.85168,-0.22786 5.43668,0.39055 7.95742,1.67751 2.51619,1.34186 5.26336,1.88947 8.07257,2.14054 3.75362,0.23267 7.51798,0.21002 11.27718,0.20222 3.48784,-0.0193 6.97574,-0.0257 10.46363,-0.0375 3.10846,-0.0111 6.21689,-0.003 9.32535,-0.007 2.81985,-0.004 5.63973,-0.006 8.4596,-0.008 2.65152,0 5.30302,0 7.95454,0 3.27269,-0.005 6.54529,0.0193 9.81795,0.0315 3.67773,0.003 7.35544,-0.0135 11.03315,-0.0228 3.45996,-0.003 6.91988,0.0148 10.37984,0.014 2.25306,-0.003 4.50609,-0.009 6.75913,-0.014 0,0 -15.88561,11.54157 -15.88561,11.54157 v 0 c -2.24018,-0.005 -4.48033,-0.0111 -6.7205,-0.014 -3.47292,0 -6.94579,0.0167 -10.41871,0.014 -3.65688,-0.009 -7.3138,-0.0254 -10.97071,-0.0228 -3.3016,0.0122 -6.60315,0.0361 -9.90481,0.0315 -2.65059,-6e-5 -5.30122,-6e-5 -7.95181,0 -2.81271,-0.003 -5.62544,-0.004 -8.43815,-0.008 -3.10549,-0.003 -6.21096,0.006 -9.31648,0.004 -3.4748,-2.7e-4 -6.94957,0.0146 -10.42437,0.003 -3.82169,-0.0172 -7.65807,0.0436 -11.46408,-0.35229 -2.94547,-0.43561 -5.77011,-1.26021 -8.42933,-2.62943 -2.41546,-0.95266 -4.90027,-1.11392 -7.48491,-0.98219 -2.6481,0.003 -5.29619,0.007 -7.94429,0.007 -2.62012,-0.004 -5.24185,-0.003 -7.85943,-0.13221 -2.41884,-0.15441 -4.82282,-0.43101 -7.19047,-0.96727 -2.82154,-0.43693 -5.68595,-0.17026 -8.53064,-0.25162 -3.87268,-0.008 -7.74539,-0.0103 -11.6181,-0.004 -3.8296,0.006 -7.65918,-0.003 -11.48879,-0.003 -4.60486,-0.008 -9.20975,-0.0151 -13.81461,-0.014 -5.43115,-0.0114 -10.86254,-0.0524 -16.29182,-0.20664 -6.44475,-0.20744 -12.88558,-0.51763 -19.31554,-1.00928 0,0 15.99515,-11.37934 15.99515,-11.37934 z"
       inkscape:connector-curvature="0"
       style="stroke-width:0.26458332" />
    <path
       id="path71"
       d="m 992.07419,-188.02644 c -7.0681,-0.12507 -14.13819,-0.0974 -21.2072,-0.10157 -7.3007,0.21767 -14.57645,-0.33277 -21.85469,-0.80534 -3.99497,-0.28511 -7.99883,-0.37674 -12.0024,-0.42288 -4.09276,-0.0463 -8.18573,-0.0266 -12.27859,-0.0246 -3.6026,0.0154 -7.20519,0.014 -10.80781,0.0206 -2.93674,0.007 -5.87348,0.0111 -8.81023,0.0132 -2.65599,0.003 -5.31198,0.003 -7.96798,0.003 -2.66171,-0.20171 -5.22076,0.55314 -7.83828,0.91369 -2.67835,0.1946 -5.28849,0.36753 -7.91559,0.91181 -3.12084,1.29897 -6.25144,2.32473 -9.58707,2.93031 -2.97302,0.47755 -5.98758,0.53255 -8.99142,0.56039 -2.66755,0.008 -5.33511,-0.008 -8.00266,-0.0153 0,0 15.91376,-11.5547 15.91376,-11.5547 v 0 c 2.65795,0.008 5.31619,0.0276 7.97401,-0.0119 2.92653,-0.0719 5.86356,-0.20905 8.7344,-0.83098 3.29245,-0.77877 6.36026,-2.16953 9.65263,-2.92399 2.6379,-0.43069 5.31855,-0.41463 7.95708,-0.85857 2.65957,-0.42992 5.30458,-0.86842 8.01354,-0.68003 2.65444,5e-5 5.30889,1e-4 7.96333,0.003 2.92494,0.003 5.84988,0.006 8.77482,0.0116 3.58905,0.005 7.17807,0 10.76709,0.008 4.11028,-0.004 8.22074,-0.003 12.33091,0.0246 3.9888,0.0739 7.97525,0.26125 11.95136,0.59412 7.20354,0.55602 14.41241,1.00912 21.64323,0.7884 7.16222,-0.004 14.32537,0.022 21.48677,-0.10157 0,0 -15.89901,11.55131 -15.89901,11.55131 z"
       inkscape:connector-curvature="0"
       style="stroke-width:0.26458332" />
    <path
       id="path73"
       d="m 991.77492,3.783963 c -7.36356,-0.1169194 -14.72853,-0.097208 -22.09278,-0.085566 -5.45402,0.00979 -10.90788,0.062627 -16.36186,0.073369 -5.14983,-0.014288 -10.2996,-0.03138 -15.44947,-0.031909 -4.2598,0.0037 -8.51948,0.044503 -12.7793,0.043259 -3.80619,0 -7.61235,-0.012171 -11.41854,-0.00873 -3.62752,-0.00688 -7.25504,0.00847 -10.88255,0.017198 -3.32997,0.3556793 -6.40771,-0.8438092 -9.5902,-1.5946967 -3.54441,-0.4465637 -6.95542,-1.30391954 -10.40873,-2.18439995 -3.75582,-0.98956811 -7.61458,-1.29415645 -11.47826,-1.45679585 -3.42625,-0.1058862 -6.85464,-0.078952 -10.282,-0.085116 -4.37774,-0.011377 -8.75546,-0.009 -13.1332,0.00265 -3.90766,0.014288 -7.81537,0.00794 -11.72306,0.016669 -3.23344,0.015346 -6.46689,0.00635 -9.70036,0.00873 -2.88766,0.00397 -5.77535,0.00741 -8.66304,0.00926 -3.08594,0.1733286 -6.1413,0.76107398 -9.2352,1.01986293 -3.06647,0.23725187 -6.1426,0.28392437 -9.21671,0.30768396 -2.68346,0.0116417 -5.36697,0.004498 -8.05045,0.002646 -2.6415,-0.003175 -5.28296,-0.003969 -7.92446,-0.004498 -1.3222,-2.1166e-4 -2.64443,-2.3812e-4 -3.96663,0 0,0 15.91011,-11.55924939 15.91011,-11.55924939 v 0 c 1.32233,1.06e-4 2.64467,1.85e-4 3.96698,0 2.64183,0 5.28367,0.0026 7.92551,0.0058 2.67597,0.0032 5.35207,0.01085 8.02799,-0.01429 3.03186,-0.04236 6.06607,-0.119354 9.08566,-0.416058 3.1243,-0.333507 6.22945,-0.976683 9.38318,-0.897466 2.87912,0.0026 5.75826,0.0053 8.63738,0.0093 3.22527,0.0026 6.45051,-0.0061 9.67578,0.009 3.89454,0.0082 7.78907,0.0026 11.68363,0.01032 4.39116,0.0045 8.78232,-0.0048 13.17339,-0.03149 3.44282,-0.01164 6.88727,-0.004 10.32624,0.181901 3.94621,0.247809 7.8644,0.716942 11.68662,1.778582 3.45213,0.869474 6.94502,1.4159977 10.4266,2.1443692 3.09472,0.7616031 6.12759,1.490636 9.34849,1.1972131 3.61175,0.00873 7.22347,0.024077 10.83522,0.017198 3.81431,0.00318 7.62857,-0.00979 11.44286,-0.00873 4.2201,0 8.4401,0.039476 12.6602,0.043259 5.17914,0 10.3582,-0.017727 15.53729,-0.031909 5.38668,0.010583 10.77322,0.063685 16.1599,0.073369 7.44278,0.011906 14.88625,0.029686 22.32835,-0.085566 0,0 -15.86458,11.5262817 -15.86458,11.5262817 z"
       inkscape:connector-curvature="0"
       style="stroke-width:0.26458332" />
    <path
       id="path75"
       d="m 833.01368,157.86023 c -4.93027,-1.69624 -10.14463,-2.12429 -15.21963,-3.14886 -3.66045,-0.87633 -7.36862,-1.7095 -10.87569,-3.09727 -3.3727,-1.35564 -6.82596,-2.39664 -10.40014,-3.05067 -3.01575,-0.49739 -6.07478,-0.5633 -9.12365,-0.59221 -2.66401,-0.008 -5.32802,0.01 -7.99203,0.0175 -3.82408,-0.0167 -7.64816,-0.0214 -11.47226,-0.0249 -3.95359,-0.01 -7.90718,0.0106 -11.86074,0.0225 -2.81342,0.008 -5.62684,0.0106 -8.44026,0.0116 -2.83168,0.005 -5.6633,-0.008 -8.49498,-0.008 -2.5292,-0.60206 -5.16816,-0.71546 -7.6672,-1.41062 -2.92706,-0.87607 -5.98919,-1.00418 -9.02004,-1.14488 -3.39307,-0.12174 -6.78892,-0.11057 -10.1836,-0.10319 -3.37794,-0.005 -6.75587,-0.003 -10.13381,0.006 -2.89766,0.008 -5.79533,0.0122 -8.69299,0.014 -2.65221,0.003 -5.30445,0.003 -7.95666,0.003 -2.61479,-0.0538 -5.23811,0.41408 -7.62232,-0.82931 -2.09193,-1.70955 -2.42483,-4.2786 -2.63705,-6.80765 -0.11533,-3.8064 -0.032,-7.61634 -0.0254,-11.42412 0.003,-3.24718 -0.003,-6.49436 -0.006,-9.74154 -0.003,-2.67308 -0.003,-5.34614 -0.003,-8.01923 -0.13988,-2.68856 0.12853,-5.30831 1.00939,-7.85283 0.93413,-2.114894 1.15424,-4.424336 1.77083,-6.629294 0.76409,-2.225755 0.88836,-4.575546 1.1988,-6.886549 0.28932,-2.678483 1.19954,-5.091244 2.37958,-7.480908 0.89813,-2.433823 1.62343,-4.836927 3.05094,-7.030085 2.16019,-2.517087 2.96881,-5.348658 3.44283,-8.5657 0.42821,-3.903848 0.43175,-7.836191 0.43096,-11.758321 -0.27276,-3.142589 0.23968,-6.058482 1.34249,-8.985541 1.05302,-2.54389 2.82237,-4.680188 4.06186,-7.117107 0.8681,-2.524495 1.22587,-5.158316 2.02832,-7.714085 1.28463,-3.409633 2.79628,-6.659563 3.63789,-10.220537 0.6245,-4.536943 1.5367,-9.0252284 2.23861,-13.5512438 0.7443,-5.15381868 1.02458,-10.3567705 1.16597,-15.5571292 -0.10893,-3.716576 0.1261,-7.329779 0.95221,-10.953697 0.96853,-3.715676 1.36972,-7.527899 1.59546,-11.349752 0.14772,-3.237203 0.15791,-6.478799 0.15547,-9.718728 0.0151,-3.769095 0.0161,-7.538217 0.003,-11.307312 0.006,-3.444425 -0.014,-6.888798 -0.0251,-10.33317 -0.009,-3.009979 0.005,-6.019879 0,-9.029859 -0.005,-2.807202 -0.009,-5.614405 -0.0106,-8.421634 -0.008,-2.853849 0.0114,-5.707592 0.0119,-8.56144 0,-2.922932 -0.0169,-5.845863 0,-8.768768 0.007,-3.00051 -0.003,-6.00104 -0.007,-9.00155 -0.004,-2.69504 -0.005,-5.39012 -0.005,-8.08519 0,-2.6434 -2.7e-4,-5.2868 -2.1e-4,-7.9302 2e-5,-2.6449 5e-5,-5.28984 5e-5,-7.93474 3e-5,-2.64581 3e-5,-5.29162 3e-5,-7.93742 0,-2.64586 0,-5.2917 0,-7.93756 0,-2.64583 0,-5.29166 0,-7.9375 -0.31324,-2.98352 0.49299,-5.73106 1.29693,-8.55686 0.80378,-2.80326 1.10522,-5.70042 1.26974,-8.60047 0.11268,-2.66033 0.0991,-5.32386 0.0956,-7.98597 0,0 17.52084,-8.93109 17.52084,-8.93109 v 0 c 0.006,2.69298 0.0214,5.38676 -0.0582,8.0789 -0.126,3.02355 -0.36095,6.05173 -1.1075,8.99585 -0.70355,2.6955 -1.84586,5.2182 -1.49497,8.07152 0,2.64583 0,5.29166 0,7.9375 0,2.64586 0,5.29169 0,7.93755 0,2.64581 0,5.29161 2e-5,7.93742 0,2.64488 3e-5,5.28979 6e-5,7.93467 5e-5,2.64348 1.3e-4,5.28696 -2.1e-4,7.93043 0,2.69685 -0.003,5.39369 -0.005,8.09054 -0.004,3.00273 -0.0132,6.00548 -0.007,9.00824 0.0159,2.92333 -0.003,5.84668 0,8.770039 0,2.849827 0.0204,5.699574 0.0119,8.549428 -0.003,2.810827 -0.005,5.621655 -0.0106,8.432482 -0.004,3.009662 0.01,6.019245 0,9.02888 -0.0106,3.451198 -0.0293,6.902423 -0.0188,10.353648 -0.008,3.764122 0.004,7.528243 0.0309,11.292285 -0.003,3.277817 0.0238,6.557248 -0.13509,9.832419 -0.2099,3.913955 -0.49903,7.841932 -1.45743,11.657092 -0.28054,1.18618 -0.64995,2.353071 -0.86633,3.552639 -0.42024,2.329577 -0.079,4.712838 -0.26255,7.059639 -0.19245,5.285608 -0.53083,10.5696544 -1.19271,15.8192787 -0.63204,4.54382185 -1.52284,9.0416855 -2.03155,13.5996097 -0.37809,1.8819816 -0.77309,3.7600206 -1.44066,5.5667006 -1.1457,3.100705 -0.23151,0.275088 -1.49775,3.147722 -0.23611,0.535702 -0.39762,1.101275 -0.59645,1.651926 -0.82021,2.608209 -1.48741,5.169058 -1.89958,7.873206 -0.9534,2.631122 -2.7211,4.71342 -4.09149,7.129727 -1.29857,2.662211 -2.00763,5.296985 -1.71653,8.289528 -0.0236,3.997801 -0.051,8.001794 -0.37026,11.988985 -0.33015,3.329781 -0.63646,6.740366 -2.96027,9.349131 -0.47103,0.690219 -1.04153,1.310587 -1.4932,2.013638 -0.9294,1.446742 -1.10649,3.151637 -1.67325,4.736465 -1.01534,2.333308 -2.48452,4.369012 -2.60623,7.021036 -0.51808,2.330741 -0.33916,4.77782 -1.07823,7.077604 -0.69945,2.239434 -0.97522,4.534535 -1.72071,6.765423 -0.9647,2.347489 -1.60452,4.636875 -1.3371,7.222622 -1.6e-4,2.675867 -8e-5,5.351757 -0.008,8.027647 -0.0116,3.26178 -0.0347,6.52348 -0.066,9.78516 -0.0279,3.74867 -0.0542,7.49887 0.0548,11.24654 0.0875,1.64722 -0.0709,3.93814 1.53762,4.89082 2.33548,0.5388 4.78703,0.10041 7.16193,0.24061 2.65094,6e-5 5.30185,1.1e-4 7.95279,0 2.88661,0.003 5.77321,0.004 8.65981,0.008 3.38365,0.003 6.76725,-0.006 10.1509,-0.0135 3.4085,0.0156 6.81839,0.0403 10.22345,0.2092 3.1237,0.2104 6.23856,0.50906 9.26057,1.37732 2.44756,0.42495 4.90324,0.91305 7.38273,1.0722 2.83937,0 5.67869,-0.0138 8.51807,-0.008 2.80252,0 5.60504,0.003 8.40756,0.0119 3.93324,0.0122 7.86649,0.0323 11.79975,0.0209 3.85453,-0.006 7.70901,-0.0119 11.56341,-0.048 2.67007,-0.008 5.34053,-0.0272 8.01028,0.0235 3.11008,0.0905 6.22546,0.27586 9.27884,0.91692 3.61442,0.80245 7.13232,1.92421 10.57111,3.29962 3.47686,1.19096 7.06543,2.07139 10.6508,2.86734 5.15736,0.96488 10.36068,1.73447 15.39682,3.26265 0,0 -16.20359,11.06578 -16.20359,11.06578 z"
       inkscape:connector-curvature="0"
       style="stroke-width:0.26458332" />
    <path
       id="path77"
       d="m 544.53639,-88.359695 c -0.10528,4.898892 -0.0786,9.79969 -0.0516,14.699324 0.0109,4.628806 0.0868,9.255706 -0.16938,13.878559 -0.56624,6.678031 -0.86797,13.370534 -1.05916,20.068328 -0.12893,5.521167 -0.10583,11.044158 -0.10969,16.566383 -0.004,5.00589 -0.005,10.011754 -0.006,15.0176439 0.0273,4.816422 0.0259,9.6326588 -0.004,14.4490544 -0.0267,5.0183787 0.023,10.0367037 0.0322,15.0550557 0.10999,5.412264 0.58415,10.822861 0.98457,16.223562 0.74361,8.908045 1.09204,17.841436 1.38512,26.773584 0.20807,6.375083 0.23357,12.753367 0.24214,19.131121 0.24691,5.249863 0.77791,10.478823 1.08641,15.725537 0.6767,5.317063 1.70484,10.574493 2.22245,15.917573 0.54271,6.12492 0.57314,12.27651 0.65429,18.42005 0.0447,5.31866 0.0397,10.63765 0.0146,15.95639 -0.0553,7.18851 -0.0835,14.37714 -0.0733,21.56587 0.0201,6.15569 0.0335,12.3114 0.0816,18.46693 0.0442,3.59384 0.0406,7.18783 0.0491,10.78183 0.009,2.87041 0.0138,5.74085 0.0164,8.61129 0.0513,2.83535 0.0449,5.64745 -0.32676,8.46105 -0.6469,2.93278 -1.48722,5.80401 -1.9372,8.77835 -0.21574,2.89867 -0.50977,5.77215 -0.94334,8.64751 -0.68197,3.20638 -1.3775,6.40016 -1.76723,9.65755 -0.3206,3.14952 -0.33256,6.31958 -0.351,9.48212 -0.003,3.04569 0.0154,6.09134 0.0251,9.13701 0.008,2.67798 0.01,5.35599 0.0103,8.03399 0,2.64163 0,5.28326 0,7.92488 -8e-5,2.64507 -10e-5,5.29013 -1.3e-4,7.9352 -3e-5,2.64583 -3e-5,5.29169 -3e-5,7.93755 0,0 -17.5224,8.9281 -17.5224,8.9281 v 0 c 0,-2.64583 0,-5.29169 0,-7.93755 0,-2.64504 0,-5.29008 -2e-5,-7.93512 0,-2.64152 -3e-5,-5.28304 -8e-5,-7.92456 -6e-5,-2.67877 -1.9e-4,-5.35757 10e-5,-8.03635 0,-3.05519 0.003,-6.11039 0.007,-9.16559 0.007,-3.21857 -0.0185,-6.44371 0.23225,-9.65475 0.33205,-3.28599 0.91726,-6.52933 1.74167,-9.72934 0.42418,-2.86816 0.86945,-5.70822 0.93522,-8.6138 0.36121,-2.99606 1.01198,-5.92749 1.95046,-8.7988 0.41577,-2.73018 0.53385,-5.4361 0.42659,-8.20113 0.003,-2.87594 0.008,-5.75191 0.0161,-8.62785 0.008,-3.61063 0.005,-7.2213 0.0489,-10.83177 0.0478,-6.18361 0.0613,-12.36737 0.0829,-18.55111 0.0122,-7.16769 -0.014,-14.33528 -0.0547,-21.50284 -0.0127,-5.31654 0.0119,-10.63305 0.009,-15.94959 -0.0109,-6.09452 -0.0773,-12.19544 -0.55708,-18.27424 -0.52488,-5.36466 -1.5153,-10.63625 -2.34519,-15.95157 -0.24535,-5.29262 -0.73276,-10.566452 -1.0578,-15.854018 0,-6.384634 0.004,-12.769717 -0.0889,-19.153822 -0.17359,-8.895583 -0.47961,-17.79442 -1.37025,-26.651797 -0.52811,-5.410199 -1.07963,-10.845403 -1.24923,-16.274679 0.009,-5.029226 0.0589,-10.058426 0.032,-15.087706 -0.0305,-4.813802 -0.0322,-9.6274726 -0.01,-14.44135457 -0.006,-5.00324433 -0.0164,-10.00648863 -0.0175,-15.00973343 0.0114,-5.557467 0.079,-11.114484 0.20553,-16.670575 0.16825,-6.701843 0.46498,-13.400669 0.97256,-20.086108 0.2509,-4.578244 0.0927,-9.162865 0.14708,-13.746983 0.0267,-4.882091 0.0545,-9.7654 -0.0516,-14.646724 0,0 17.51028,-8.921935 17.51028,-8.921935 z"
       inkscape:connector-curvature="0"
       style="stroke-width:0.26458332" />
    <path
       id="path79"
       d="m 857.13669,-185.3806 c -4.67934,-0.074 -9.3595,-0.0443 -14.03918,-0.0251 -3.15429,0.0148 -6.30862,0.0233 -9.46296,0.0273 -2.31367,0.38264 -4.44,1.318 -6.69263,1.91093 -2.41229,0.25609 -5.0342,1.2968 -7.38116,0.68892 -2.47198,-1.52127 -2.584,-4.48654 -2.77739,-7.10462 -0.11316,-3.16875 -0.082,-6.34052 -0.0697,-9.51068 0.0161,-2.80017 0.0114,-5.60041 0.0323,-8.40052 0.0148,-3.03625 -0.007,-6.07256 0.008,-9.10879 0.005,-3.03374 -0.005,-6.06747 -0.01,-9.10119 0.0109,-3.07094 0,-6.14195 0.0135,-9.21287 0.004,-3.09999 -0.007,-6.19995 -0.013,-9.29989 -0.005,-2.69899 -0.006,-5.39798 -0.006,-8.09696 0,-2.64211 -2.4e-4,-5.28421 -1.9e-4,-7.92631 -0.25278,-3.12478 0.44966,-6.07936 1.26775,-9.06651 1.28149,-4.69693 2.59647,-9.37664 3.39019,-14.18449 0.50668,-3.98524 1.23796,-7.93951 1.97014,-11.88868 1.15697,-4.75195 1.90066,-9.56869 2.33273,-14.43594 0.32369,-3.98817 0.33067,-7.9911 0.35319,-11.98932 0,-3.24745 -0.0251,-6.49478 -0.0394,-9.74217 -0.0108,-2.69561 -0.0127,-5.39121 -0.014,-8.08684 0,-2.63958 0,-5.27917 0,-7.91876 -0.27196,-2.65229 0.28255,-5.0092 1.23481,-7.44961 0.91726,-2.28539 1.16864,-4.72773 1.32525,-7.16182 0.27307,-2.30968 0.85553,-4.55819 1.13292,-6.87015 0.24857,-2.53084 0.26246,-5.07661 0.28075,-7.61719 0.01,-2.64483 0.003,-5.28971 -1.9e-4,-7.93454 0.0381,-2.63266 -0.0986,-5.2705 0.0855,-7.89823 0,0 17.65898,-8.69979 17.65898,-8.69979 v 0 c -0.53938,2.50219 -0.0722,5.12392 -0.22328,7.66802 0.003,2.64829 0.009,5.29656 0.007,7.94485 -0.008,2.59395 -0.009,5.19068 -0.18235,7.78008 -0.1946,2.29875 -0.53499,4.57041 -1.18724,6.78931 -0.10631,2.59146 -0.26017,5.20671 -1.05199,7.69633 -0.82523,2.30902 -1.99834,4.24863 -1.55728,6.82453 3e-5,2.63946 5e-5,5.27894 3e-5,7.9184 -8e-5,2.69703 -1.9e-4,5.39406 -0.003,8.09109 -0.003,3.25969 -0.006,6.51939 -0.0103,9.77908 -0.005,4.05466 -0.0433,8.11281 -0.32157,12.15948 -0.43331,4.90903 -1.02992,9.80824 -2.25499,14.59257 -0.68636,3.94578 -1.43651,7.88296 -1.97877,11.8492 -0.74718,4.87865 -2.05565,9.60588 -3.29718,14.37674 -0.76642,2.80726 -1.60941,5.60732 -1.39584,8.54615 5e-5,2.64216 1.6e-4,5.28431 -1.8e-4,7.92647 0,2.7011 -0.003,5.40218 -0.006,8.10326 -0.006,3.10438 -0.0167,6.20879 -0.013,9.31317 0.0132,3.06626 0.003,6.13262 0.0138,9.19891 -0.005,3.03686 -0.014,6.07369 -0.009,9.11055 0.0145,3.03541 -0.006,6.07081 0.003,9.10622 0.014,2.80292 -0.006,5.60583 -0.0274,8.40867 -0.0265,3.1283 -0.0792,6.25816 0.0185,9.3857 0.067,1.33604 -0.30258,4.39449 1.39906,4.72567 2.31934,-0.2091 4.63746,-0.70173 6.88674,-1.29019 2.27938,-0.73099 4.58891,-1.47579 7.01252,-1.45357 3.1293,0.004 6.25861,0.0124 9.38789,0.0273 4.70283,0.0193 9.40615,0.0479 14.10869,-0.0251 0,0 -15.89902,11.55131 -15.89902,11.55131 z"
       inkscape:connector-curvature="0"
       style="stroke-width:0.26458332" />
    <path
       id="path81"
       d="m 718.95895,-181.6023 c 0.69734,-6.16768 1.94164,-12.25225 2.84869,-18.39034 0.61727,-4.19545 0.88638,-8.4282 0.99817,-12.66373 0.0914,-3.70176 0.0726,-7.40476 0.051,-11.10718 -0.0388,-3.30589 -0.0284,-6.61146 -0.006,-9.91735 0.0848,-6.14283 0.0945,-12.28677 0.0647,-18.43011 -0.069,-4.71048 -0.0634,-9.41969 -0.0201,-14.13012 0.0555,-5.69854 0.0122,-11.39743 -0.0214,-17.096 -0.0418,-3.88961 -0.0201,-7.77936 -0.0318,-11.6691 -0.0127,-3.05462 -0.0225,-6.10926 -0.0276,-9.16393 -0.004,-2.65967 -0.004,-5.31937 -0.004,-7.97904 2e-5,-2.64033 1.3e-4,-5.28063 2.1e-4,-7.92096 5e-5,-2.64528 5e-5,-5.29053 8e-5,-7.93581 -0.0672,-2.75992 0.14541,-5.53 -0.10263,-8.28153 -0.50864,-2.65872 -0.85807,-5.32723 -1.03386,-8.02754 -0.15859,-2.91066 -0.17759,-5.82629 -0.19064,-8.74043 -0.0434,-2.70135 0.0924,-5.40653 -0.0993,-8.10255 -0.47143,-3.30353 -0.81338,-6.62117 -1.02952,-9.95061 -0.16388,-2.82898 -0.18433,-5.66327 -0.1964,-8.49609 -0.005,-2.64726 0,-5.29452 0.003,-7.94178 -0.13917,-1.64738 -0.0411,-0.81426 -0.29943,-2.49881 0,0 17.37238,-9.21215 17.37238,-9.21215 v 0 c 0.32184,1.83253 0.17113,0.90453 0.45061,2.78426 -0.003,2.64573 -0.007,5.29145 -0.009,7.93718 0.003,2.80501 0.003,5.6111 0.11869,8.4142 0.16595,3.30205 0.44144,6.59929 0.99645,9.86168 0.37534,2.74289 0.15902,5.51215 0.20534,8.27598 0,2.88198 -0.003,5.76536 0.1246,8.64516 0.15097,2.66671 0.44815,5.31212 0.99782,7.92948 0.37812,2.80713 0.15558,5.64814 0.21386,8.47543 3e-5,2.64525 3e-5,5.2905 8e-5,7.93572 8e-5,2.64028 1.9e-4,5.28053 2.1e-4,7.92078 -1.3e-4,2.66094 -1.5e-4,5.32188 -0.004,7.98285 -0.005,3.06404 -0.0148,6.12804 -0.0276,9.19208 -0.0116,3.90054 0.01,7.8011 -0.0318,11.70154 -0.0335,5.70584 -0.077,11.41203 -0.0214,17.11788 0.0439,4.71725 0.0481,9.43329 -0.0204,14.15063 -0.0296,6.12055 -0.0214,12.24174 0.0673,18.36176 0.0262,3.30142 0.0432,6.60263 0.0233,9.90421 -0.004,3.71615 0.022,7.43233 -0.003,11.14835 -0.12507,4.33636 -0.43516,8.66589 -1.05781,12.96196 -0.94522,6.06679 -2.25181,12.09715 -2.69409,18.22691 0,0 -17.60691,8.72712 -17.60691,8.72712 z"
       inkscape:connector-curvature="0"
       style="stroke-width:0.26458332" />
    <path
       id="path83"
       d="m 586.55735,-369.35907 c 0.18428,-6.45848 0.1388,-12.92072 0.0975,-19.38086 -0.0593,-4.63881 -0.0535,-9.27788 -0.0447,-13.91693 0.0127,-4.85642 0.0214,-9.71277 -0.004,-14.56915 -0.0225,-3.32737 -0.0405,-6.65477 -0.0494,-9.98222 0.0122,-3.2607 0,-6.52119 0.0337,-9.78178 0.0459,-4.36139 0.0177,-8.72295 -0.007,-13.08435 -0.014,-3.74935 -8e-5,-7.49884 0.0138,-11.2482 0.0206,-3.91246 -0.009,-7.82495 -0.0271,-11.73736 -0.013,-2.81388 -0.0164,-5.62779 -0.0183,-8.44169 -0.0896,-2.63016 -0.11324,-5.15487 0.80243,-7.64528 1.87711,-3.50258 3.32944,-7.18606 4.66537,-10.92627 1.29532,-3.74496 1.99758,-7.63665 2.34162,-11.57284 0.18158,-2.79793 0.0675,-5.58981 0.46566,-8.36962 0.48525,-2.57746 0.74168,-5.1831 0.88226,-7.7993 0.0423,-1.55195 1.03203,-3.90378 -0.53089,-4.95732 -2.3963,-0.53752 -4.86346,-0.55698 -7.30687,-0.58556 -3.30922,0.11983 -6.55166,-0.59524 -9.84366,-0.86618 -4.85577,-0.33243 -9.7242,-0.39797 -14.58952,-0.43044 -4.02183,-0.002 -8.04365,-0.008 -12.06548,-0.0142 -4.38425,-0.0152 -8.76847,0.004 -13.1527,0.0217 -2.95706,0.0125 -5.91418,0.0172 -8.87127,0.0195 -3.31385,-0.0216 -6.62776,-0.0161 -9.94164,-0.0102 -2.81934,0.14096 -5.69476,-0.28602 -8.47423,0.26078 -2.92949,1.2867 -6.09894,1.76056 -9.25415,2.09159 -3.52329,0.1247 -6.98224,0.42658 -10.42574,1.20275 -5.52469,0.75114 -10.89242,2.2604 -16.28325,3.62768 -4.57806,0.9123 -8.86714,2.77833 -13.38512,3.91436 -3.30843,1.05011 -6.36592,2.66274 -9.46877,4.18896 -2.72381,1.3057 -5.68452,1.69745 -8.66122,1.88429 -2.65988,0.20803 -5.26367,0.85098 -7.93221,1.11951 -3.09144,0.25416 -6.19749,0.2259 -9.29682,0.22586 -4.0037,-0.004 -8.00743,-0.006 -12.01116,-1.1e-4 -3.25085,0.0127 -6.50171,0.003 -9.75259,0.006 -3.20381,-0.003 -6.40763,-0.002 -9.61144,0.003 -2.78162,0.005 -5.56326,0.006 -8.34488,0.007 -3.32121,-0.0224 -6.64244,-0.0166 -9.96368,-0.0107 -0.51339,0.001 -1.02679,0.002 -1.54022,0.003 0,0 15.8868,-11.54245 15.8868,-11.54245 v 0 c 0.51086,0.001 1.02172,0.002 1.53258,0.003 3.33105,0.006 6.6621,0.0116 9.9931,-0.0107 2.77489,0.001 5.54979,0.003 8.32471,0.007 3.20115,0.005 6.40226,0.006 9.60343,0.004 3.24196,0.003 6.48396,-0.004 9.72589,0.0155 3.99902,0.0129 7.99825,0.0248 11.99717,-0.008 3.07914,-0.0421 6.16762,-0.0659 9.22792,-0.44798 2.65425,-0.36788 5.27682,-0.96732 7.9624,-1.07473 2.86009,-0.34822 5.627,-1.0401 8.1792,-2.42876 3.11266,-1.55975 6.32565,-2.96003 9.69422,-3.87013 4.43008,-1.26338 8.75046,-2.90852 13.28185,-3.8083 5.43896,-1.40863 10.90337,-2.69106 16.44867,-3.61851 3.49689,-0.60342 7.01042,-0.80302 10.54015,-1.11766 3.16598,-0.47205 6.18998,-1.41759 9.30336,-2.10641 2.85893,-0.13187 5.72238,-0.0326 8.58364,-0.0557 3.32319,0.006 6.64641,0.0114 9.9696,-0.0101 2.93966,0.002 5.87931,0.007 8.81894,0.0179 4.36951,0.0152 8.73902,0.0308 13.10857,0.009 4.0264,-0.0114 8.05309,-0.0349 12.07918,0.0331 4.89397,0.0781 9.78961,0.18931 14.67255,0.54885 3.28747,0.29117 6.55346,0.81985 9.86541,0.70606 2.79233,0.10852 5.76752,0.12582 8.16591,1.74035 1.68624,1.85216 2.01406,4.06269 1.30604,6.46708 -0.10427,2.68006 -0.28014,5.3616 -0.78491,8.00109 -0.49536,2.73925 -0.49499,5.46244 -0.56555,8.24438 -0.30358,4.09669 -0.97417,8.15094 -2.24864,12.06825 -1.21753,3.73196 -2.42459,7.56918 -4.4514,10.94187 -0.29255,0.66519 -0.68213,1.28959 -0.92136,1.97575 -0.5556,1.59363 -0.0672,3.36051 -0.22776,5.00159 -0.003,2.82012 -0.006,5.64025 -0.0183,8.46035 -0.0177,3.9216 -0.0477,7.84327 -0.0271,11.76492 0.0138,3.74473 0.0276,7.48958 0.0138,11.23429 -0.0243,4.36372 -0.0529,8.72759 -0.007,13.09128 0.0335,3.24916 0.0214,6.49822 0.0336,9.74748 -0.009,3.34422 -0.027,6.6884 -0.0494,10.03255 -0.0254,4.8578 -0.0169,9.71555 -0.004,14.57338 0.009,4.65423 0.0143,9.30849 -0.0447,13.96249 -0.0408,6.42702 -0.0886,12.85621 0.0975,19.28151 0,0 -17.51028,8.92193 -17.51028,8.92193 z"
       inkscape:connector-curvature="0"
       style="stroke-width:0.26458332" />
    <path
       id="path85"
       d="m 721.16444,-380.03959 c -1.72659,-5.90454 -3.75693,-11.71371 -5.96014,-17.45601 -1.45933,-3.57098 -2.40001,-7.28599 -2.82548,-11.11208 -0.14759,-3.50054 -0.6503,-6.96471 -0.87482,-10.46006 -0.30893,-6.69452 -0.3982,-13.39718 -0.47009,-20.09775 -0.0518,-4.3247 -0.0969,-8.64948 -0.1189,-12.97445 -0.0116,-2.74206 -0.0111,-5.48416 -0.0111,-8.22624 -0.006,-2.82763 0.0137,-5.65516 0.0145,-8.48277 -0.003,-2.86793 -0.008,-5.73585 -0.0106,-8.60378 0.004,-3.18614 0.0241,-6.37219 0.0204,-9.55836 0.0143,-3.34976 -0.003,-6.69956 -0.0122,-10.04931 -0.0209,-3.1296 0.005,-6.25907 0.0254,-9.38858 0.0523,-4.73685 0.0383,-9.47417 0.0132,-14.21115 -0.0214,-3.24873 -0.0373,-6.49748 -0.045,-9.74627 -0.003,-2.71152 -0.013,-5.42307 0.004,-8.13455 0.0169,-3.66704 0.0309,-7.33424 0.0302,-11.00135 -0.008,-3.28751 -0.0238,-6.57499 -0.0322,-9.8625 -0.004,-1.81017 -0.006,-3.62034 -0.006,-5.43051 0,0 17.52145,-8.92762 17.52145,-8.92762 v 0 c 0,1.81237 -0.003,3.62474 -0.006,5.4371 -0.008,3.29846 -0.0241,6.5969 -0.0322,9.89536 0,3.65684 0.0132,7.31378 0.0302,10.97056 0.0175,2.70996 0.007,5.42 0.005,8.13 -0.008,3.26407 -0.0236,6.52811 -0.045,9.79212 -0.0249,4.73246 -0.0393,9.46526 0.0132,14.19759 0.0209,3.12089 0.0462,6.24173 0.0254,9.36272 -0.009,3.35387 -0.0265,6.70779 -0.0122,10.06167 -0.004,3.17922 0.0164,6.35831 0.0204,9.5375 -0.003,2.8715 -0.008,5.743 -0.0103,8.61451 0,2.82316 0.0212,5.64624 0.0132,8.46942 -0.003,2.74835 -0.005,5.49672 -0.0233,8.24503 -0.0301,4.35217 -0.0788,8.70426 -0.0779,13.05658 0.0271,6.65042 0.0527,13.30696 0.48223,19.94618 0.29107,3.46152 0.91845,6.87983 0.99092,10.35283 0.29006,3.68943 1.07146,7.28681 2.41604,10.74653 2.13535,5.82308 4.13062,11.69008 6.17011,17.54711 0,0 -17.22165,9.36053 -17.22165,9.36053 z"
       inkscape:connector-curvature="0"
       style="stroke-width:0.26458332" />
    <path
       id="path87"
       d="m 836.81175,-381.45881 c 1.27111,-5.32347 1.79266,-10.78545 2.1654,-16.23401 0.17357,-4.30414 0.26974,-8.59243 0.68501,-12.88148 1.19126,-8.43849 1.71876,-16.9409 2.05703,-25.44958 0.22106,-6.01704 0.24085,-12.03824 0.21185,-18.05839 -0.003,-3.46715 -0.11986,-6.93582 0.10625,-10.39709 0.44884,-3.73083 0.61101,-7.49162 1.31795,-11.18573 1.00904,-5.53524 1.0623,-11.18941 1.18062,-16.79833 0.0578,-4.32636 0.038,-8.65334 0.0254,-12.97994 -0.0145,-3.02416 -0.0285,-6.04831 -0.0358,-9.07249 -0.005,-2.65858 -0.006,-5.31717 -0.006,-7.97576 -5e-5,-2.64073 10e-5,-5.28145 2.1e-4,-7.92218 0.009,-2.85737 -0.0682,-5.71293 0.14039,-8.5639 0.74432,-3.95653 1.58599,-7.88582 2.09068,-11.88328 0.33851,-2.88263 0.39815,-5.78598 0.42707,-8.68495 0.005,-3.29221 0.0287,-6.58435 0.0428,-9.87654 0,-3.65745 -0.0265,-7.31484 -0.0414,-10.97225 2.4e-4,-3.07444 0.003,-6.14888 -0.004,-9.22333 0,0 17.50285,-8.91812 17.50285,-8.91812 v 0 c -0.006,3.0755 -0.005,6.15098 -0.003,9.22646 -0.0132,3.6684 -0.0361,7.33681 -0.0279,11.00525 0.0225,3.28216 0.0691,6.56425 0.0574,9.84652 -0.0196,2.97289 -0.0604,5.95047 -0.37867,8.9095 -0.47054,3.98158 -1.19886,7.92345 -2.10733,11.8287 -0.32041,2.78064 -0.12713,5.58181 -0.17616,8.37776 3e-5,2.64064 1.1e-4,5.28127 1.3e-4,7.92191 -2e-5,2.65932 0,5.31864 -0.003,7.97797 -0.003,3.03315 -0.007,6.0663 -0.0154,9.09945 -0.01,4.36493 -0.0437,8.72964 -0.15277,13.09346 -0.12949,5.67526 -0.1937,11.37382 -0.85548,17.01665 -0.74909,3.63709 -1.11876,7.30115 -1.4555,11.0038 -0.34155,3.41182 -0.0865,6.84467 -0.19219,10.2698 -0.0774,6.09022 -0.21672,12.18005 -0.4572,18.26613 -0.38156,8.4867 -0.80992,16.97802 -1.807,25.41918 -0.32472,4.28318 -0.51202,8.55996 -0.69887,12.85256 -0.39177,5.50064 -0.93469,10.99339 -1.89791,16.42732 0,0 -17.69697,8.53493 -17.69697,8.53493 z"
       inkscape:connector-curvature="0"
       style="stroke-width:0.26458332" />
    <text
       xml:space="preserve"
       style="font-style:normal;font-weight:normal;font-size:11.28888893px;line-height:1.25;font-family:sans-serif;letter-spacing:0px;word-spacing:0px;fill:#000000;fill-opacity:1;stroke:none;stroke-width:0.26458332"
       x="140.22917"
       y="-652.85413"
       id="text91"><tspan
         sodipodi:role="line"
         id="tspan89"
         x="140.22917"
         y="-652.85413"
         style="font-size:50.79999924px;stroke-width:0.26458332">1</tspan></text>
    <text
       xml:space="preserve"
       style="font-style:normal;font-weight:normal;font-size:50.79999924px;line-height:1.25;font-family:sans-serif;letter-spacing:0px;word-spacing:0px;fill:#000000;fill-opacity:1;stroke:none;stroke-width:0.26458332"
       x="16.370258"
       y="-383.53503"
       id="text95"><tspan
         sodipodi:role="line"
         id="tspan93"
         x="16.370258"
         y="-383.53503"
         style="stroke-width:0.26458332">2</tspan></text>
    <text
       xml:space="preserve"
       style="font-style:normal;font-weight:normal;font-size:50.79999924px;line-height:1.25;font-family:sans-serif;letter-spacing:0px;word-spacing:0px;fill:#000000;fill-opacity:1;stroke:none;stroke-width:0.26458332"
       x="329.7438"
       y="-655.98291"
       id="text99"><tspan
         sodipodi:role="line"
         id="tspan97"
         x="329.7438"
         y="-655.98291"
         style="stroke-width:0.26458332">3</tspan></text>
    <text
       xml:space="preserve"
       style="font-style:normal;font-weight:normal;font-size:50.79999924px;line-height:1.25;font-family:sans-serif;letter-spacing:0px;word-spacing:0px;fill:#000000;fill-opacity:1;stroke:none;stroke-width:0.26458332"
       x="342.1879"
       y="-320.39261"
       id="text103"><tspan
         sodipodi:role="line"
         id="tspan101"
         x="342.1879"
         y="-320.39261"
         style="stroke-width:0.26458332">4</tspan></text>
    <text
       xml:space="preserve"
       style="font-style:normal;font-weight:normal;font-size:50.79999924px;line-height:1.25;font-family:sans-serif;letter-spacing:0px;word-spacing:0px;fill:#000000;fill-opacity:1;stroke:none;stroke-width:0.26458332"
       x="215.87195"
       y="-171.81625"
       id="text107"><tspan
         sodipodi:role="line"
         id="tspan105"
         x="215.87195"
         y="-171.81625"
         style="stroke-width:0.26458332">5</tspan></text>
    <text
       xml:space="preserve"
       style="font-style:normal;font-weight:normal;font-size:50.79999924px;line-height:1.25;font-family:sans-serif;letter-spacing:0px;word-spacing:0px;fill:#000000;fill-opacity:1;stroke:none;stroke-width:0.26458332"
       x="202.6619"
       y="-28.925585"
       id="text111"><tspan
         sodipodi:role="line"
         id="tspan109"
         x="202.6619"
         y="-28.925585"
         style="stroke-width:0.26458332">6</tspan></text>
    <text
       xml:space="preserve"
       style="font-style:normal;font-weight:normal;font-size:50.79999924px;line-height:1.25;font-family:sans-serif;letter-spacing:0px;word-spacing:0px;fill:#000000;fill-opacity:1;stroke:none;stroke-width:0.26458332"
       x="166.04118"
       y="261.92087"
       id="text115"><tspan
         sodipodi:role="line"
         id="tspan113"
         x="166.04118"
         y="261.92087"
         style="stroke-width:0.26458332">7</tspan></text>
    <text
       xml:space="preserve"
       style="font-style:normal;font-weight:normal;font-size:50.79999924px;line-height:1.25;font-family:sans-serif;letter-spacing:0px;word-spacing:0px;fill:#000000;fill-opacity:1;stroke:none;stroke-width:0.26458332"
       x="424.45743"
       y="-551.91486"
       id="text119"><tspan
         sodipodi:role="line"
         id="tspan117"
         x="424.45743"
         y="-551.91486"
         style="stroke-width:0.26458332">8</tspan></text>
    <text
       xml:space="preserve"
       style="font-style:normal;font-weight:normal;font-size:50.79999924px;line-height:1.25;font-family:sans-serif;letter-spacing:0px;word-spacing:0px;fill:#000000;fill-opacity:1;stroke:none;stroke-width:0.26458332"
       x="549.573"
       y="-473.57147"
       id="text123"><tspan
         sodipodi:role="line"
         id="tspan121"
         x="549.573"
         y="-473.57147"
         style="stroke-width:0.26458332">9</tspan></text>
    <text
       xml:space="preserve"
       style="font-style:normal;font-weight:normal;font-size:50.79999924px;line-height:1.25;font-family:sans-serif;letter-spacing:0px;word-spacing:0px;fill:#000000;fill-opacity:1;stroke:none;stroke-width:0.26458332"
       x="423.28812"
       y="-382.36572"
       id="text127"><tspan
         sodipodi:role="line"
         id="tspan125"
         x="423.28812"
         y="-382.36572"
         style="stroke-width:0.26458332">10</tspan></text>
    <text
       xml:space="preserve"
       style="font-style:normal;font-weight:normal;font-size:50.79999924px;line-height:1.25;font-family:sans-serif;letter-spacing:0px;word-spacing:0px;fill:#000000;fill-opacity:1;stroke:none;stroke-width:0.26458332"
       x="653.64105"
       y="-528.52881"
       id="text131"><tspan
         sodipodi:role="line"
         id="tspan129"
         x="653.64105"
         y="-528.52881"
         style="stroke-width:0.26458332">11</tspan></text>
    <text
       xml:space="preserve"
       style="font-style:normal;font-weight:normal;font-size:50.79999924px;line-height:1.25;font-family:sans-serif;letter-spacing:0px;word-spacing:0px;fill:#000000;fill-opacity:1;stroke:none;stroke-width:0.26458332"
       x="534.37201"
       y="-223.34036"
       id="text135"><tspan
         sodipodi:role="line"
         id="tspan133"
         x="534.37201"
         y="-223.34036"
         style="stroke-width:0.26458332">12</tspan></text>
    <text
       xml:space="preserve"
       style="font-style:normal;font-weight:normal;font-size:50.79999924px;line-height:1.25;font-family:sans-serif;letter-spacing:0px;word-spacing:0px;fill:#000000;fill-opacity:1;stroke:none;stroke-width:0.26458332"
       x="462.39575"
       y="267.76733"
       id="text139"><tspan
         sodipodi:role="line"
         id="tspan137"
         x="462.39575"
         y="267.76733"
         style="stroke-width:0.26458332">13</tspan></text>
    <text
       xml:space="preserve"
       style="font-style:normal;font-weight:normal;font-size:50.79999924px;line-height:1.25;font-family:sans-serif;letter-spacing:0px;word-spacing:0px;fill:#000000;fill-opacity:1;stroke:none;stroke-width:0.26458332"
       x="782.5376"
       y="-546.0683"
       id="text143"><tspan
         sodipodi:role="line"
         id="tspan141"
         x="782.5376"
         y="-546.0683"
         style="stroke-width:0.26458332">14</tspan></text>
    <text
       xml:space="preserve"
       style="font-style:normal;font-weight:normal;font-size:50.79999924px;line-height:1.25;font-family:sans-serif;letter-spacing:0px;word-spacing:0px;fill:#000000;fill-opacity:1;stroke:none;stroke-width:0.26458332"
       x="916.73444"
       y="-209.30872"
       id="text147"><tspan
         sodipodi:role="line"
         id="tspan145"
         x="916.73444"
         y="-209.30872"
         style="stroke-width:0.26458332">15</tspan></text>
    <text
       xml:space="preserve"
       style="font-style:normal;font-weight:normal;font-size:50.79999924px;line-height:1.25;font-family:sans-serif;letter-spacing:0px;word-spacing:0px;fill:#000000;fill-opacity:1;stroke:none;stroke-width:0.26458332"
       x="918.67572"
       y="-7.7485185"
       id="text151"><tspan
         sodipodi:role="line"
         id="tspan149"
         x="918.67572"
         y="-7.7485185"
         style="stroke-width:0.26458332">16</tspan></text>
    <text
       xml:space="preserve"
       style="font-style:normal;font-weight:normal;font-size:50.79999924px;line-height:1.25;font-family:sans-serif;letter-spacing:0px;word-spacing:0px;fill:#000000;fill-opacity:1;stroke:none;stroke-width:0.26458332"
       x="721.46069"
       y="107.57267"
       id="text155"><tspan
         sodipodi:role="line"
         id="tspan153"
         x="721.46069"
         y="107.57267"
         style="stroke-width:0.26458332">17</tspan></text>
    <text
       xml:space="preserve"
       style="font-style:normal;font-weight:normal;font-size:50.79999924px;line-height:1.25;font-family:sans-serif;letter-spacing:0px;word-spacing:0px;fill:#000000;fill-opacity:1;stroke:none;stroke-width:0.26458332"
       x="760.04773"
       y="271.27527"
       id="text159"><tspan
         sodipodi:role="line"
         id="tspan157"
         x="760.04773"
         y="271.27527"
         style="stroke-width:0.26458332">18</tspan></text>
  </g>
</svg>
